<?xml version="1.0" encoding="utf-8"?>
<!-- Generator: Adobe Illustrator 27.3.1, SVG Export Plug-In . SVG Version: 6.00 Build 0)  -->
<svg version="1.1" id="Layer_2_00000119829921656898095460000004782145038610039209_"
	 xmlns="http://www.w3.org/2000/svg" xmlns:xlink="http://www.w3.org/1999/xlink" x="0px" y="0px" viewBox="0 0 394.2 82.9"
	 style="enable-background:new 0 0 394.2 82.9;" xml:space="preserve">
<style type="text/css">
	.st0{fill-rule:evenodd;clip-rule:evenodd;fill:#F2811D;}
	.st1{fill:#F2811D;}
</style>
<g id="Layer_1-2">
	<g>
		<path class="st0" d="M135.9,68.5c-12.7,9.4-31.2,14.4-47.1,14.4c-22.3,0-42.3-8.2-57.5-21.9c-1.2-1.1-0.1-2.5,1.3-1.7
			C49,68.8,69.3,74.5,90.2,74.5c14.1,0,29.6-2.9,43.9-9C136.2,64.6,138.1,66.9,135.9,68.5z"/>
		<path class="st0" d="M141.2,62.4c-1.6-2.1-10.8-1-14.9-0.5c-1.2,0.2-1.4-0.9-0.3-1.7c7.3-5.1,19.2-3.6,20.6-1.9
			c1.4,1.7-0.4,13.7-7.2,19.4c-1.1,0.9-2.1,0.4-1.6-0.8C139.4,73.1,142.9,64.5,141.2,62.4L141.2,62.4z"/>
		<path class="st0" d="M126.7,24.1v-5c0-0.8,0.6-1.3,1.3-1.3h22.3c0.7,0,1.3,0.5,1.3,1.2v4.3c0,0.7-0.6,1.6-1.7,3.1L138.3,43
			c4.3-0.1,8.8,0.5,12.7,2.7c0.9,0.5,1.1,1.2,1.2,1.9V53c0,0.7-0.8,1.6-1.6,1.1c-6.9-3.6-16-4-23.6,0c-0.8,0.4-1.6-0.4-1.6-1.2v-5
			c0-0.8,0-2.2,0.8-3.4l13.4-19.2h-11.7C127.2,25.3,126.7,24.8,126.7,24.1L126.7,24.1z"/>
		<path class="st0" d="M45.3,55.1h-6.8c-0.7,0-1.2-0.5-1.2-1.2V19.2c0-0.7,0.6-1.2,1.3-1.2H45c0.7,0,1.2,0.5,1.2,1.2v4.5h0.1
			c1.7-4.4,4.8-6.5,8.9-6.5s6.9,2,8.8,6.5c1.7-4.4,5.4-6.5,9.4-6.5c2.8,0,5.9,1.2,7.8,3.8c2.2,2.9,1.7,7.2,1.7,10.9v22
			c0,0.7-0.6,1.2-1.3,1.2h-6.8c-0.7,0-1.2-0.6-1.2-1.2V35.4c0-1.5,0.1-5.1-0.2-6.5c-0.5-2.3-2-3-4-3c-1.7,0-3.4,1.1-4.1,2.9
			c-0.7,1.8-0.6,4.7-0.6,6.7v18.5c0,0.7-0.6,1.2-1.3,1.2h-6.8c-0.7,0-1.2-0.6-1.2-1.2V35.4c0-3.9,0.6-9.6-4.2-9.6s-4.7,5.6-4.7,9.6
			v18.5C46.7,54.6,46.1,55.1,45.3,55.1L45.3,55.1z"/>
		<path class="st0" d="M170.7,17.2c10.1,0,15.5,8.6,15.5,19.6s-6,19-15.5,19s-15.3-8.6-15.3-19.4S160.9,17.2,170.7,17.2z
			 M170.8,24.3c-5,0-5.3,6.8-5.3,11.1s-0.1,13.3,5.2,13.3s5.5-7.3,5.5-11.8c0-2.9-0.1-6.5-1-9.2C174.4,25.2,172.9,24.3,170.8,24.3z"
			/>
		<path class="st0" d="M199.2,55.1h-6.8c-0.7,0-1.2-0.6-1.2-1.2V19c0.1-0.6,0.6-1.1,1.3-1.1h6.3c0.6,0,1.1,0.4,1.2,1v5.3h0.1
			c1.9-4.8,4.6-7,9.2-7c3,0,6,1.1,7.9,4.1c1.8,2.8,1.8,7.5,1.8,10.8V54c-0.1,0.6-0.6,1.1-1.3,1.1H211c-0.6,0-1.1-0.5-1.2-1.1V35.1
			c0-3.8,0.4-9.4-4.2-9.4c-1.6,0-3.2,1.1-3.9,2.8c-0.9,2.1-1.1,4.3-1.1,6.6v18.7C200.5,54.5,199.9,55.1,199.2,55.1L199.2,55.1z"/>
		<path class="st0" d="M108.9,38.5c0,2.6,0.1,4.8-1.3,7.2c-1.1,1.9-2.8,3.1-4.7,3.1c-2.6,0-4.1-2-4.1-4.9c0-5.8,5.2-6.8,10.1-6.8
			L108.9,38.5L108.9,38.5z M115.7,55c-0.4,0.4-1.1,0.4-1.6,0.2c-2.2-1.9-2.7-2.7-3.9-4.5c-3.7,3.8-6.4,4.9-11.2,4.9
			c-5.7,0-10.2-3.5-10.2-10.6c0-5.5,3-9.2,7.2-11.1c3.7-1.6,8.8-1.9,12.8-2.4v-0.9c0-1.6,0.1-3.5-0.8-4.9c-0.8-1.2-2.4-1.8-3.8-1.8
			c-2.6,0-4.9,1.3-5.4,4.1c-0.1,0.6-0.6,1.2-1.2,1.2l-6.6-0.7c-0.6-0.1-1.2-0.6-1-1.4c1.5-8,8.7-10.4,15.2-10.4
			c3.3,0,7.6,0.9,10.2,3.4c3.3,3.1,3,7.2,3,11.7v10.6c0,3.2,1.3,4.6,2.6,6.3c0.4,0.6,0.5,1.3,0,1.8C119.6,51.7,117.1,53.8,115.7,55
			L115.7,55L115.7,55z"/>
		<path class="st0" d="M20,38.5c0,2.6,0.1,4.8-1.3,7.2c-1.1,1.9-2.8,3.1-4.7,3.1c-2.6,0-4.1-2-4.1-4.9c0-5.8,5.2-6.8,10.1-6.8
			L20,38.5L20,38.5z M26.8,55c-0.5,0.4-1.1,0.4-1.6,0.2c-2.2-1.9-2.7-2.7-3.9-4.5c-3.7,3.8-6.4,4.9-11.2,4.9C4.4,55.6,0,52.1,0,45
			c0-5.5,3-9.2,7.2-11.1C10.9,32.3,16,32,20,31.6v-0.9c0-1.6,0.1-3.5-0.8-4.9c-0.8-1.2-2.4-1.8-3.8-1.8c-2.6,0-4.9,1.3-5.4,4.1
			c-0.1,0.6-0.6,1.2-1.2,1.2l-6.6-0.7c-0.6-0.1-1.2-0.6-1-1.4c1.5-8,8.7-10.4,15.2-10.4c3.3,0,7.6,0.9,10.2,3.4
			c3.3,3.1,3,7.2,3,11.7v10.6c0,3.2,1.3,4.6,2.6,6.3c0.4,0.6,0.5,1.3,0,1.8C30.7,51.7,28.2,53.8,26.8,55L26.8,55L26.8,55z"/>
		<path class="st1" d="M250.6,55.1L234.8,36h-0.1v19.2H229V0h5.7v31.3h0.1l13.5-13h7.4l-16.2,15l18.3,21.8L250.6,55.1L250.6,55.1z"
			/>
		<path class="st1" d="M264.4,10.6c-2.2,0-4-1.8-4-4s1.8-4,4-4s4,1.8,4,4S266.6,10.6,264.4,10.6z M261.6,55.1V18.3h5.7v36.8H261.6z"
			/>
		<path class="st1" d="M299.2,55.1V32.5c0-4.6-0.8-9.7-6.4-9.7c-4.5,0-8.6,3.2-11.4,5.6v26.8h-5.7V18.3h4.7l0.8,4.4
			c4-3.1,8-5.4,13.2-5.4s10.6,3.8,10.6,13v24.8L299.2,55.1L299.2,55.1z"/>
		<path class="st1" d="M330,55.9c-10.3,0-18.9-6-18.9-18.7c0-11.5,8.2-19.9,19-19.9c2.6,0,4.5,0.2,6,0.6V0h5.7v53.3
			C339.4,54.6,335.2,55.9,330,55.9L330,55.9z M336,23.3c-1.5-0.5-2.8-0.9-5.7-0.9c-7.2,0-13.5,5.7-13.5,14.5
			c0,8.3,4.6,14.2,14.2,14.2c1.9,0,3.9-0.4,5.1-0.9L336,23.3L336,23.3z"/>
		<path class="st1" d="M356.5,55.9c-4.5,0-6.5-2.9-6.5-6.8V0h5.7v46.6c0,3.5,0.9,4.2,3,4.2c0.4,0,1,0,2-0.2l0.7,4.1
			C359.7,55.5,358.4,55.9,356.5,55.9L356.5,55.9z"/>
		<path class="st1" d="M370.6,37.7c0,7,4,13.3,12,13.3c3.4,0,6.8-1.3,9-2.7l1.8,4c-2.7,1.9-7.4,3.6-11.4,3.6
			c-11.8,0-17.4-9.4-17.4-19.9s6.1-18.6,15-18.6c9.5,0,14.7,7.5,14.7,19v1.3L370.6,37.7L370.6,37.7z M379.5,22.2
			c-5.5,0-8.9,4.8-8.9,10.7H388C388,27.7,385.2,22.2,379.5,22.2L379.5,22.2z"/>
	</g>
</g>
</svg>
