<?xml version="1.0" encoding="utf-8"?>
<!-- Generator: Adobe Illustrator 27.3.1, SVG Export Plug-In . SVG Version: 6.00 Build 0)  -->
<svg version="1.1" id="Layer_2_00000181773887775577561010000002938978667723580064_"
	 xmlns="http://www.w3.org/2000/svg" xmlns:xlink="http://www.w3.org/1999/xlink" x="0px" y="0px" viewBox="0 0 512 209.7"
	 style="enable-background:new 0 0 512 209.7;" xml:space="preserve">
<style type="text/css">
	.st0{fill:#F2811D;}
</style>
<g id="Layer_1-2">
	<g>
		<polygon class="st0" points="436.3,80.7 512,33.5 512,46.3 436.3,93.7 360.5,46.3 360.5,33.5 		"/>
		<path class="st0" d="M436.3,21.5c-17.1,0-32.1,8.6-40.7,21.9l0,0c0.7-0.7,1.1-1.1,1.8-1.6c21.3-17.7,52-13.7,68.7,8.6l11.1-7.1
			l0,0C468.4,30.4,453.3,21.5,436.3,21.5"/>
		<path class="st0" d="M436.3,43.4c-9.3,0-17.5,4.7-22.4,11.5c4-2.9,8.6-4.4,13.5-4.4c8.2,0,15.5,4.2,20.4,11.3l10.6-6.6l0,0
			C453.8,47.9,445.6,43.4,436.3,43.4"/>
		<path class="st0" d="M385.1,24.2C416.3-0.4,460.4,6.3,483.9,39l0.2,0.2l11.5-7.1l0,0C483,12.8,461.1,0,436.3,0
			S389.8,12.6,377,32.1C379.3,29.5,382.2,26.4,385.1,24.2"/>
	</g>
	<g>
		<path class="st0" d="M18.6,189.6c-0.7,1.1-1.6,2-2.9,2.7s-2.7,1.1-4.4,1.1c-1.1,0-2-0.2-3.1-0.4c-0.9-0.2-1.8-0.7-2.2-1.3
			c-0.7-0.7-1.1-1.1-1.6-2c-0.4-0.9-0.7-1.8-0.7-2.7c0-1.8,0.4-3.1,1.3-4s2-1.6,3.5-2c1.3-0.4,3.1-0.7,4.7-0.9
			c1.8-0.2,3.5-0.2,5.1-0.2v-1.3c0-1.6-0.4-2.9-1.3-3.8c-0.9-0.9-2.2-1.3-3.8-1.3s-3.1,0.2-3.8,1.1s-1.3,1.6-1.6,2.9
			c-0.4,0-1.1-0.2-1.3-0.2H5.2c0.2-2,1.1-3.5,2.7-4.7c1.3-1.1,3.5-1.6,6-1.6c2.7,0,4.7,0.7,6,2s2,3.3,2,6v13.7h-2
			C19.9,192.7,18.6,189.6,18.6,189.6z M18.4,182.1c-1.8,0-3.5,0.2-5.1,0.2c-1.3,0.2-2.7,0.2-3.5,0.7c-0.9,0.4-1.8,0.7-2.2,1.3
			c-0.4,0.7-0.7,1.3-0.7,2.4c0,1.3,0.4,2.2,1.1,2.9s1.8,1.1,3.3,1.1c1.1,0,2.2-0.2,3.1-0.7c0.9-0.2,1.6-0.9,2.2-1.3
			c0.7-0.7,1.1-1.3,1.3-2.2s0.4-1.8,0.4-2.7L18.4,182.1L18.4,182.1z"/>
		<path class="st0" d="M28.6,171.7h1.8l1.1,3.5c0.9-1.3,1.8-2.2,3.1-3.1c1.3-0.7,2.7-1.1,4-1.1c2.4,0,4.2,0.7,5.5,2
			c1.1,1.3,1.8,3.3,1.8,5.8v14H43v-13.5c0-1.8-0.4-3.3-1.1-4.2s-2-1.3-3.5-1.3c-1.1,0-2.2,0.2-3.1,0.7c-0.9,0.4-1.6,1.1-2,1.8
			c-0.7,0.7-0.9,1.8-1.1,2.7c-0.2,1.1-0.2,2.2-0.2,3.3v10.4h-3.1L28.6,171.7L28.6,171.7L28.6,171.7z"/>
		<path class="st0" d="M230.3,185.8c-0.2,2.2-1.1,4.2-2.7,5.5s-3.5,2.2-6,2.2c-1.6,0-3.1-0.2-4.2-0.9c-1.1-0.7-2.2-1.3-3.1-2.2
			c-0.9-1.1-1.3-2.2-1.8-3.5c-0.4-1.3-0.7-2.9-0.7-4.4c0-1.6,0.2-3.1,0.7-4.4c0.4-1.3,1.1-2.7,1.8-3.5s1.8-1.8,3.1-2.4
			c1.1-0.7,2.7-0.9,4.2-0.9c1.1,0,2.2,0.2,3.3,0.7c1.1,0.4,1.8,0.9,2.7,1.6c0.7,0.7,1.3,1.3,1.8,2.2s0.7,1.8,0.7,3.1H227
			c-0.2-1.3-0.7-2.7-1.6-3.5s-2.2-1.3-3.8-1.3c-1.3,0-2.2,0.2-3.1,0.7c-0.9,0.4-1.3,1.1-2,1.8c-0.4,0.7-0.9,1.8-1.1,2.7
			s-0.2,2-0.2,3.1s0.2,2.2,0.2,3.1s0.7,1.8,1.1,2.7c0.4,0.9,1.1,1.3,2,1.8c0.9,0.4,1.8,0.7,3.1,0.7c1.8,0,3.1-0.4,3.8-1.3
			c0.9-1.1,1.3-2.2,1.8-3.5h3.1V185.8L230.3,185.8L230.3,185.8z"/>
		<path class="st0" d="M244.5,193.4c-1.6,0-3.1-0.2-4.2-0.9c-1.1-0.7-2.2-1.3-3.1-2.2c-0.9-1.1-1.3-2.2-1.8-3.5
			c-0.4-1.3-0.7-2.9-0.7-4.4s0.2-3.1,0.7-4.4c0.4-1.3,1.1-2.7,1.8-3.5c0.7-1.1,1.8-1.8,3.1-2.2c1.1-0.7,2.7-0.9,4.2-0.9
			s3.1,0.2,4.2,0.9c1.1,0.7,2.2,1.3,3.1,2.2c0.7,1.1,1.3,2.2,1.8,3.5c0.4,1.3,0.7,2.9,0.7,4.4s-0.2,3.1-0.7,4.4
			c-0.4,1.3-1.1,2.7-1.8,3.5c-0.9,1.1-1.8,1.8-3.1,2.2C247.4,193.1,246,193.4,244.5,193.4z M244.5,190.7c1.3,0,2.2-0.2,3.1-0.7
			c0.9-0.4,1.6-1.1,2-1.8s0.9-1.8,1.1-2.7c0.2-1.1,0.2-2,0.2-3.1s-0.2-2.2-0.2-3.1c-0.2-1.1-0.7-1.8-1.1-2.7s-1.1-1.3-2-1.8
			c-0.9-0.4-1.8-0.7-3.1-0.7s-2.2,0.2-3.1,0.7c-0.9,0.4-1.3,1.1-2,1.8s-0.9,1.8-1.1,2.7c-0.2,1.1-0.2,2-0.2,3.1s0.2,2.2,0.2,3.1
			c0.2,1.1,0.7,2,1.1,2.7c0.7,0.7,1.1,1.3,2,1.8C242,190.5,243.2,190.7,244.5,190.7z"/>
		<path class="st0" d="M286.6,192.9v-13.7c0-1.8-0.2-3.3-1.1-4c-0.7-0.9-1.8-1.3-3.3-1.3c-0.7,0-1.3,0.2-2.2,0.4
			c-0.7,0.2-1.3,0.7-1.8,1.3c-0.7,0.7-1.1,1.3-1.3,2c-0.2,0.7-0.4,1.6-0.4,2.7v12.6h-3.1v-13.7c0-1.8-0.2-3.1-1.1-4
			c-0.7-0.9-1.8-1.3-3.3-1.3c-0.7,0-1.6,0.2-2.2,0.7c-0.7,0.2-1.3,0.9-1.8,1.3c-0.7,0.7-1.1,1.3-1.3,2.2s-0.4,1.8-0.4,3.1v11.5h-3.1
			v-20.8h1.8l1.1,3.3c0.7-1.3,1.8-2.2,2.9-2.9s2.2-1.1,3.8-1.1c1.8,0,3.1,0.4,4,1.1c1.1,0.7,1.8,1.8,2.2,3.1
			c0.7-1.3,1.8-2.2,2.9-3.1s2.7-1.1,4.2-1.1c2.2,0,3.8,0.7,5.1,1.8c1.1,1.3,1.8,3.1,1.8,5.5v14.4H286.6L286.6,192.9z"/>
		<path class="st0" d="M296.5,171.7h2l1.1,3.1c0.7-1.1,1.8-2.2,3.1-2.9c1.1-0.7,2.7-1.1,4-1.1c1.6,0,2.9,0.2,4,0.9s2,1.3,2.9,2.4
			c0.7,1.1,1.3,2.2,1.8,3.5c0.2,1.3,0.7,2.7,0.7,4.2c0,1.6-0.2,3.1-0.7,4.4c-0.4,1.3-1.1,2.7-1.8,3.5c-0.7,1.1-1.8,1.8-2.9,2.2
			c-1.1,0.7-2.4,0.9-4,0.9c-1.3,0-2.7-0.2-3.8-0.9s-2.2-1.3-3.1-2.7v11.1h-3.1v-29.2h-0.2V171.7z M299.4,181.9
			c0,1.3,0.2,2.7,0.2,3.5c0.2,1.1,0.7,2,1.1,2.9c0.7,0.7,1.1,1.3,2,1.8c0.9,0.4,1.8,0.7,3.1,0.7c2.2,0,3.8-0.7,4.7-2.2
			c1.1-1.6,1.6-3.5,1.6-6.2s-0.7-4.7-1.8-6.2c-1.1-1.3-2.7-2.2-4.7-2.2c-1.1,0-2,0.2-2.9,0.7c-0.9,0.4-1.6,1.1-2.2,1.8
			c-0.7,0.7-1.1,1.6-1.3,2.7C299.6,179.6,299.4,180.7,299.4,181.9L299.4,181.9z"/>
		<path class="st0" d="M334.4,189.6c-0.7,1.1-1.6,2-2.9,2.7s-2.7,1.1-4.4,1.1c-1.1,0-2-0.2-3.1-0.4c-0.9-0.2-1.8-0.7-2.2-1.3
			c-0.7-0.7-1.1-1.1-1.6-2c-0.4-0.9-0.7-1.8-0.7-2.7c0-1.8,0.4-3.1,1.3-4s2-1.6,3.5-2c1.3-0.4,3.1-0.7,4.7-0.9
			c1.8-0.2,3.5-0.2,5.1-0.2v-1.3c0-1.6-0.4-2.9-1.3-3.8s-2.2-1.3-3.8-1.3s-3.1,0.2-3.8,1.1c-0.9,0.7-1.3,1.6-1.6,2.9
			c-0.4,0-1.1-0.2-1.3-0.2H321c0.2-2,1.1-3.5,2.7-4.7c1.3-1.1,3.5-1.6,6-1.6c2.7,0,4.7,0.7,6,2s2,3.3,2,6v13.7h-2.4L334.4,189.6
			L334.4,189.6z M334.4,182.1c-1.8,0-3.5,0.2-5.1,0.2c-1.3,0.2-2.7,0.2-3.5,0.7c-0.9,0.4-1.8,0.7-2.2,1.3c-0.4,0.7-0.7,1.3-0.7,2.4
			c0,1.3,0.4,2.2,1.1,2.9s1.8,1.1,3.3,1.1c1.1,0,2.2-0.2,3.1-0.7c0.9-0.2,1.6-0.9,2.2-1.3c0.7-0.7,1.1-1.3,1.3-2.2s0.4-1.8,0.4-2.7
			L334.4,182.1L334.4,182.1L334.4,182.1z"/>
		<path class="st0" d="M344.6,171.7h1.8l1.1,3.5c0.9-1.3,1.8-2.2,3.1-3.1s2.7-1.1,4-1.1c2.4,0,4.2,0.7,5.5,2
			c1.1,1.3,1.8,3.3,1.8,5.8v14h-3.1v-13.5c0-1.8-0.4-3.3-1.1-4.2s-2-1.3-3.5-1.3c-1.1,0-2.2,0.2-3.1,0.7c-0.9,0.4-1.6,1.1-2,1.8
			c-0.4,0.9-0.9,1.8-1.1,2.7c-0.2,1.1-0.2,2.2-0.2,3.3v10.4h-3.1L344.6,171.7L344.6,171.7L344.6,171.7z"/>
		<path class="st0" d="M367.2,200.5c0-0.4,0.2-0.9,0.2-1.3s0.2-0.9,0.2-1.3c0.2,0.2,0.7,0.2,1.1,0.2s0.9,0.2,1.3,0.2
			s1.1-0.2,1.6-0.4c0.4-0.2,0.7-0.7,1.1-1.1c0.4-0.7,0.7-1.1,0.9-1.8c0.2-0.7,0.7-1.6,1.1-2.7c-1.3-3.5-2.9-7.1-4.2-10.4
			s-2.9-7.1-4.4-10.4h3.5c1.1,2.9,2.2,6,3.5,8.6c1.1,2.9,2.2,5.8,3.5,8.6c1.1-2.9,2.2-6,3.3-8.6c1.1-2.9,2.2-5.8,3.3-8.6h3.3
			c-1.3,3.8-2.9,7.5-4.2,11.1c-1.3,3.8-3.1,7.5-4.4,11.1c-0.4,1.1-0.9,2-1.1,2.9c-0.4,0.9-0.9,1.6-1.3,2.2s-1.1,1.1-1.8,1.3
			c-0.7,0.2-1.6,0.4-2.7,0.4c-0.7,0-1.3,0-1.8-0.2C368.3,200.5,367.6,200.7,367.2,200.5z"/>
	</g>
	<g>
		<path class="st0" d="M145.5,201.1c-7.8,5.5-19,8.6-28.8,8.6c-13.5,0-25.9-4.9-35-13.1c-0.7-0.7-0.2-1.6,0.9-1.1
			c10,5.8,22.4,9.1,35.2,9.1c8.6,0,17.9-1.8,26.8-5.3C145.7,198.9,146.8,200.2,145.5,201.1z"/>
		<path class="st0" d="M148.8,197.6c-1.1-1.3-6.6-0.7-9.1-0.2c-0.7,0.2-0.9-0.7-0.2-1.1c4.4-3.1,11.7-2.2,12.6-1.1
			s-0.2,8.2-4.4,11.5c-0.7,0.7-1.3,0.2-1.1-0.4C147.7,203.8,149.7,198.9,148.8,197.6z"/>
		<path class="st0" d="M139.7,174.8v-3.1c0-0.4,0.2-0.7,0.7-0.7h13.5c0.4,0,0.7,0.2,0.7,0.7v2.7c0,0.4-0.4,1.1-1.1,1.8l-7.1,9.7
			c2.7,0,5.5,0.2,7.8,1.6c0.7,0.2,0.7,0.7,0.7,1.1v3.1c0,0.4-0.4,0.9-1.1,0.7c-4.2-2.2-9.7-2.4-14.4,0c-0.4,0.2-1.1-0.2-1.1-0.7
			v-3.1c0-0.4,0-1.3,0.7-2l8.2-11.5h-6.8C140.2,175.4,139.7,175.2,139.7,174.8L139.7,174.8z"/>
		<path class="st0" d="M90.1,193.4h-4.2c-0.4,0-0.7-0.2-0.7-0.7v-20.6c0-0.4,0.4-0.7,0.9-0.7h3.8c0.4,0,0.7,0.2,0.7,0.7v2.7h0.2
			c1.1-2.7,2.9-3.8,5.5-3.8s4.2,1.1,5.5,3.8c1.1-2.7,3.3-3.8,5.8-3.8c1.8,0,3.5,0.7,4.9,2.2c1.3,1.8,1.1,4.2,1.1,6.4v13.1
			c0,0.4-0.4,0.7-0.9,0.7h-4.2c-0.4,0-0.7-0.2-0.7-0.7v-11.1c0-0.9,0.2-3.1-0.2-3.8c-0.2-1.3-1.3-1.8-2.4-1.8s-2,0.7-2.4,1.8
			s-0.4,2.7-0.4,4v11.1c0,0.4-0.2,0.7-0.9,0.7h-4.2c-0.4,0-0.7-0.2-0.7-0.7v-11.1c0-2.2,0.4-5.8-2.7-5.8s-2.9,3.3-2.9,5.8v11.1
			C91,192.9,90.6,193.4,90.1,193.4L90.1,193.4z"/>
		<path class="st0" d="M166.8,170.6c6.2,0,9.5,5.1,9.5,11.5s-3.8,11.3-9.5,11.3c-6,0-9.3-5.1-9.3-11.5S160.8,170.6,166.8,170.6z
			 M166.8,175c-3.1,0-3.3,4-3.3,6.6s0,8,3.1,8s3.3-4.2,3.3-7.1c0-1.8-0.2-3.8-0.7-5.5C169,175.4,168.1,175,166.8,175L166.8,175z"/>
		<path class="st0" d="M184.2,193.4H180c-0.4,0-0.7-0.2-0.7-0.7v-20.6c0-0.4,0.4-0.7,0.9-0.7h3.8c0.4,0,0.7,0.2,0.7,0.7v3.1h0.2
			c1.1-2.9,2.7-4.2,5.5-4.2c1.8,0,3.8,0.7,4.9,2.4s1.1,4.4,1.1,6.4v13.1c0,0.4-0.4,0.7-0.9,0.7h-4.2c-0.4,0-0.7-0.2-0.7-0.7v-11.1
			c0-2.2,0.2-5.5-2.7-5.5c-1.1,0-2,0.7-2.4,1.8c-0.7,1.3-0.7,2.7-0.7,3.8V193C184.9,192.9,184.7,193.4,184.2,193.4L184.2,193.4z"/>
		<path class="st0" d="M136,189.2c-0.7-1.1-1.6-2-1.6-3.8v-6.2c0-2.7,0.2-5.1-1.8-6.9c-1.6-1.3-4.2-2-6.2-2c-4,0-8.4,1.6-9.3,6.2
			c0,0.7,0.4,0.7,0.7,0.9l4,0.4c0.4,0,0.4-0.2,0.7-0.7c0.2-1.8,1.8-2.4,3.3-2.4c0.9,0,1.8,0.4,2.2,1.1c0.9,0.7,0.7,1.8,0.7,2.9v0.7
			c-2.2,0.2-5.5,0.2-7.8,1.3c-2.7,1.1-4.4,3.3-4.4,6.6c0,4,2.7,6.2,6.2,6.2c3.1,0,4.7-0.7,6.9-2.9c0.9,1.1,1.1,1.6,2.4,2.7
			c0.4,0,0.9,0,1.1-0.2c0.9-0.7,2.4-2,2.9-2.9C136.2,190,136.2,189.6,136,189.2L136,189.2z M129.1,183.4c0,1.6,0,2.9-0.7,4.2
			c-0.7,1.1-1.8,1.8-2.9,1.8c-1.6,0-2.7-1.1-2.7-2.9c0-3.5,3.1-4,6.2-4L129.1,183.4L129.1,183.4L129.1,183.4z"/>
		<path class="st0" d="M81.9,189.2c-0.7-1.1-1.6-2-1.6-3.8v-6.2c0-2.7,0.2-5.1-1.8-6.9c-1.6-1.3-4.2-2-6.2-2c-4,0-8.4,1.6-9.3,6.2
			c0,0.7,0.4,0.7,0.7,0.9l4,0.4c0.4,0,0.4-0.2,0.7-0.7c0.2-1.8,1.8-2.4,3.3-2.4c0.9,0,1.6,0.4,2.2,1.1s0.4,1.8,0.4,2.9v0.7
			c-2.2,0.2-5.5,0.2-7.8,1.3c-2.7,1.1-4.4,3.3-4.4,6.6c0,4,2.7,6.2,6.2,6.2c3.1,0,4.7-0.7,6.9-2.9c0.9,1.1,1.1,1.6,2.4,2.7
			c0.4,0,0.9,0,1.1-0.2c0.9-0.7,2.4-2,3.1-2.9C82.2,190,82.2,189.6,81.9,189.2L81.9,189.2z M74.6,183.4c0,1.6,0,2.9-0.7,4.2
			c-0.7,1.1-1.8,1.8-2.9,1.8c-1.6,0-2.7-1.1-2.7-2.9c0-3.5,3.1-4,6.2-4L74.6,183.4L74.6,183.4z"/>
	</g>
	<path class="st0" d="M68.9,119.8V74.6h14.8v44.7c0,10.9,9.1,13.5,14.2,13.5c11.1,0,14.8-6.6,14.8-10.4V74.6h14.8v70.2h-8.6l-5.8-8
		c-4,4.9-10.6,9.3-20.4,9.3C78.6,146.2,68.9,136.9,68.9,119.8z"/>
	<path class="st0" d="M237.2,49.9v95h8.4l5.5-8c4,4.9,10.6,9.5,20.4,9.5c13.1,0,24.1-8,24.1-25.7V99c0-17.7-11.1-25.7-24.8-25.7
		c-9.5,0-15.9,4.2-19.3,8.4V49.8L237.2,49.9L237.2,49.9L237.2,49.9z M267.3,132.9c-9.1,0-15.7-4.4-15.5-14l0,0V99.6
		c0-7.5,6-13.3,15.7-13.3c6.9,0,13.7,5.1,13.7,13.3v19.7C281.2,128,274.2,132.9,267.3,132.9L267.3,132.9z"/>
	<path class="st0" d="M181.8,49.9v31.9c-3.3-4.2-9.7-8.4-19.3-8.4c-13.7,0-24.8,8-24.8,25.7v21.7c0,17.7,11.1,25.7,24.1,25.7
		c9.7,0,16.4-4.7,20.4-9.5l5.5,8h8.4V50L181.8,49.9L181.8,49.9L181.8,49.9z M152.1,119.6V99.9c0-8.2,6.9-13.3,13.7-13.3
		c9.7,0,15.7,5.5,15.7,13.3v19.3l0,0c0.2,9.5-6.4,14-15.5,14C159.2,132.9,152.1,128,152.1,119.6z"/>
	<path class="st0" d="M305.6,49.9h14.8v95h-14.8V49.9z"/>
	<g>
		<rect x="209.5" y="74.7" class="st0" width="14.8" height="70.2"/>
		<circle class="st0" cx="217" cy="57.8" r="8.4"/>
	</g>
	<path class="st0" d="M361.2,132.9c-10.2,0-15.1-5.3-15.1-12.6v-5.8h43.8V98.8c0-16.2-11.3-25.7-28.8-25.7s-29.9,10.2-29.9,26.1
		v21.7c0,16.2,11.7,25.7,29.9,25.7c13.5,0,23.5-5.5,27.5-14.8l-10.6-6.6C374.3,130.3,368.9,132.9,361.2,132.9z M346.1,99
		c0-7.3,5.1-12.4,14.6-12.4s14.6,5.1,14.6,12.4v4.4h-29L346.1,99L346.1,99z"/>
	<path class="st0" d="M30.8,73.1c-14.4,0-23.7,5.8-27.2,14.4l11.5,7.1c4.9-7.8,9.5-8.2,15.7-8.2c9.1,0,13.1,4.2,13.1,11.1v5.5H31.4
		C22.3,103,0,106.1,0,125.4C0,139.1,10.4,146,23,146c10,0,17.3-4.7,21.5-9.5l5.8,8h8.6V96.4C58.7,83.1,49.4,73.1,30.8,73.1z
		 M43.8,122.5c-0.2,1.1-0.2,2.4-1.6,4.2c-2.2,3.1-8,6.2-14.6,6.2c-7.1,0-12.2-2.9-12.2-8.6c0-8.4,13.5-10.2,22.1-10.6h6.4
		L43.8,122.5C43.8,122.5,43.8,122.5,43.8,122.5z"/>
</g>
</svg>
