<?xml version="1.0" encoding="utf-8"?>
<!-- Generator: Adobe Illustrator 27.3.1, SVG Export Plug-In . SVG Version: 6.00 Build 0)  -->
<svg version="1.1" id="Layer_2_00000088852856546482508290000007270800022094284450_"
	 xmlns="http://www.w3.org/2000/svg" xmlns:xlink="http://www.w3.org/1999/xlink" x="0px" y="0px" viewBox="0 0 154.9 24"
	 style="enable-background:new 0 0 154.9 24;" xml:space="preserve">
<style type="text/css">
	.st0{fill:#F2811D;}
</style>
<g id="Layer_1-2">
	<g>
		<path id="path3" class="st0" d="M10.4,17c0,4.6-2.1,6.3-5.5,6.3H0v-22h4.9c3.8,0,4.8,2.3,4.8,6c0,2.8-1,4.2-2.7,4.3
			C8.9,11.6,10.4,13.5,10.4,17C10.4,17,10.4,17,10.4,17z M3.8,12.9v7.8h1c1.2,0,1.5-0.7,1.5-4c0-2.5-0.3-3.7-1.6-3.7
			C4.7,12.9,3.8,12.9,3.8,12.9z M3.8,3.8v6.4h1c1,0,1.2-1,1.2-2.8c0-2.5-0.2-3.5-1.5-3.5C4.5,3.8,3.8,3.8,3.8,3.8z"/>
		<path id="path5" class="st0" d="M32.1,12c2.5,0.7,2.8,3.6,2.8,6.3c0,2.1,0.1,3.9,0.4,5h-4c-0.1-0.9-0.3-1.3-0.3-3.3v-2.8
			c0-1.8-0.6-3-1.9-3.4h-0.2v9.5h-4v-22h5.9c2.7,0,4.6,1.6,4.6,5.6C35.3,10.3,33.9,11.8,32.1,12L32.1,12L32.1,12z M28.9,4v6.4h1.2
			c1,0,1.3-0.7,1.3-2.7c0-3.2-0.6-3.7-1.8-3.7H28.9z"/>
		<path id="path7" class="st0" d="M42,11.3c0.2,2.9,0.2,3.7,0.2,6.4v5.6h-3.6v-22h3.6c0,0,1.7,6.5,2.1,7.9s0.7,2.4,0.9,3.4
			c-0.1-2.2-0.2-4.8-0.2-7V1.3h3.5v22h-3.2c0,0-2-6.8-2.4-8.1C42.6,14,42.3,12.9,42,11.3C42,11.3,42,11.3,42,11.3z"/>
		<polygon id="polygon9" class="st0" points="55.9,19.9 60.7,19.9 60.7,23.3 52,23.3 52,1.3 60.1,1.3 60.1,4.6 55.9,4.6 55.9,10.5 
			59.6,10.5 59.6,13.6 55.9,13.6 		"/>
		<path id="path11" class="st0" d="M66.4,18.2c0,2.5,0.6,2.9,1.5,2.9c0.7,0,1.2-0.4,1.2-2.9c0-2.2-1.5-3.7-3-5.7
			c-1.6-1.8-3.2-4.2-3.2-6.3c0-3.3,1.6-5.2,4.6-5.2s4.7,1.7,4.7,4.9c0,0.7-0.2,1.3-0.3,1.8h-3.2c0-0.4,0.1-0.9,0.1-1.6
			c0-2.1-0.3-2.8-1.2-2.8s-1,0.9-1,2.5c0,2,1.6,3.5,2.8,5.2c1.9,2.4,3.3,4.2,3.3,6.5c0,3.5-1.5,6.2-4.9,6.2c-2.9,0-4.9-1.6-4.9-5.4
			c0-0.9,0-1.7,0.2-2.4l3.5-0.1C66.5,16.7,66.4,17.2,66.4,18.2L66.4,18.2L66.4,18.2z"/>
		<path id="path13" class="st0" d="M99.7,11.3c0.2,2.9,0.2,3.7,0.2,6.4v5.6h-3.6v-22h3.6c0,0,1.7,6.5,2.1,7.9s0.7,2.4,0.8,3.4
			c-0.1-2.2-0.1-4.8-0.1-7V1.3h3.5v22h-3.2c0,0-2-6.8-2.4-8.1C100.2,14,100,12.9,99.7,11.3L99.7,11.3L99.7,11.3z"/>
		<path id="path15" class="st0" d="M119.4,12.3c0,9.4-1.6,11.4-5.2,11.4c-3.3,0-5.1-1.5-5.1-11.4S110.5,1,114.2,1
			S119.4,2.6,119.4,12.3C119.4,12.3,119.4,12.3,119.4,12.3z M115.3,12.3c0-3.4,0-5.6-0.1-7.2s-0.4-1.9-1-1.9s-0.9,0.3-1,1.9
			c-0.1,1.6-0.1,3.7-0.1,7.2c0,4,0,5.6,0.1,7.1c0.1,1.7,0.4,1.9,1,1.9c0.7,0,0.9-0.1,1-1.9C115.3,17.8,115.3,16.3,115.3,12.3
			L115.3,12.3z"/>
		<path id="path17" class="st0" d="M132.8,17c0,4.6-2.1,6.3-5.5,6.3h-4.9v-22h4.9c3.8,0,4.8,2.3,4.8,6c0,2.8-1,4.2-2.6,4.3
			C131.3,11.6,132.8,13.5,132.8,17L132.8,17z M126.2,12.9v7.8h1c1.2,0,1.5-0.7,1.5-4c0-2.5-0.3-3.7-1.6-3.7
			C127,12.9,126.2,12.9,126.2,12.9z M126.2,3.8v6.4h1c1,0,1.2-1,1.2-2.8c0-2.5-0.3-3.5-1.5-3.5C126.9,3.8,126.2,3.8,126.2,3.8z"/>
		<polygon id="polygon19" class="st0" points="139.5,19.9 144.1,19.9 144.1,23.3 135.5,23.3 135.5,1.3 139.5,1.3 		"/>
		<polygon id="polygon21" class="st0" points="150.1,19.9 154.9,19.9 154.9,23.3 146.3,23.3 146.3,1.3 154.4,1.3 154.4,4.6 
			150.1,4.6 150.1,10.5 153.9,10.5 153.9,13.6 150.1,13.6 		"/>
		<path id="path23" class="st0" d="M11.9,23.3L15,1.2h3.8l3.7,22.1h-4.1l-0.4-3.5h-2.5l-0.4,3.5C15.2,23.3,11.9,23.3,11.9,23.3z
			 M15.9,17.3h2c0,0-0.3-2.6-0.5-4.2c-0.1-1-0.5-4.2-0.6-6.3c-0.1,2.2-0.4,5.3-0.5,6.3C16.2,14.7,15.9,17.3,15.9,17.3
			C15.9,17.3,15.9,17.3,15.9,17.3z"/>
		<path id="path25" class="st0" d="M91.6,11.8c-1.6,0-2.7,1-3.3,2.4c-0.7,1.5-1.5,3.3-2,4.3c-1.7-2.9-2.9-5.2-3.7-7.3
			c1.3-0.8,3.5-1.9,4.9-3c1.3-1.2,1.9-2.4,2.2-3.6C90,2.1,88.7,0,85.5,0c-2.7,0-5.8,2.1-6.4,5.5c-0.3,1.7,0.1,3.9,0.8,5.8
			c-2.4,1.6-4.4,3.3-5,6.1C74.2,22,77.1,24,80.3,24c2.2,0,3.8-1,5.2-2.5c1,1.1,2.3,2.5,3.8,2.5c1.3,0,2.7-0.8,3.7-2.2l-0.5-0.7
			c-1,1-1.7,1.4-2.3,1.4c-1.1,0-2.1-1-3-2.4c-0.1-0.3-0.2-0.5-0.3-0.7c0.6-1.2,1-2.5,1.6-3.6c1-2.2,1.6-2.9,2.5-2.9
			c1.6,0,0.3,2.6,2,2.6c0.8,0,1.2-0.6,1.3-1.3C94.4,13.3,93.8,11.8,91.6,11.8L91.6,11.8L91.6,11.8z M81.8,4.9
			c0.2-1.6,1.6-3.2,3.6-3.2c1.6,0,2.7,1.2,2.3,3c-0.1,0.7-0.3,1.4-1,2.3c-0.8,0.9-3.3,2.5-4.5,3.1C81.6,8.3,81.4,6.7,81.8,4.9
			C81.8,4.9,81.8,4.9,81.8,4.9z M81.2,22.6c-3,0-4.1-2.5-3.8-4.5c0.4-2.4,1.6-3.9,3-5.3c1.1,2.7,2.5,5.3,4.4,8.1
			C83.8,22.1,82.8,22.6,81.2,22.6L81.2,22.6z"/>
		<path id="path27" class="st0" d="M81,4c0,0-2.1,3.2,0.9,9.6c2.4,5.3,5.2,8.2,5.2,8.2s-2.8-3.9-4.8-8.6C79.9,7.5,81,4,81,4L81,4
			L81,4z"/>
	</g>
</g>
</svg>
