<?xml version="1.0" encoding="utf-8"?>
<!-- Generator: Adobe Illustrator 27.3.1, SVG Export Plug-In . SVG Version: 6.00 Build 0)  -->
<svg version="1.1" id="Layer_2_00000137101043958919168430000015076339406182385296_"
	 xmlns="http://www.w3.org/2000/svg" xmlns:xlink="http://www.w3.org/1999/xlink" x="0px" y="0px" viewBox="0 0 400 93"
	 style="enable-background:new 0 0 400 93;" xml:space="preserve">
<style type="text/css">
	.st0{fill:#F2811D;}
</style>
<g id="artwork">
	<g>
		<path class="st0" d="M200.8,50.4c-8.1,0-14.7,6.2-14.7,14.7s6.6,14.7,14.7,14.7s14.7-6.2,14.7-14.7S209,50.4,200.8,50.4z
			 M200.8,74c-4.4,0-8.3-3.7-8.3-8.9s3.8-8.9,8.3-8.9s8.3,3.6,8.3,8.9S205.3,74,200.8,74z M168.7,50.4c-8.1,0-14.7,6.2-14.7,14.7
			s6.6,14.7,14.7,14.7s14.7-6.2,14.7-14.7S176.8,50.4,168.7,50.4z M168.7,74c-4.4,0-8.3-3.7-8.3-8.9s3.8-8.9,8.3-8.9
			s8.3,3.6,8.3,8.9S173.1,74,168.7,74z M130.4,54.9v6.2h14.9c-0.4,3.5-1.6,6.1-3.4,7.8c-2.2,2.2-5.6,4.6-11.5,4.6
			c-9.2,0-16.3-7.4-16.3-16.6s7.2-16.6,16.3-16.6c4.9,0,8.6,2,11.2,4.5l4.4-4.4c-3.7-3.6-8.7-6.3-15.6-6.3
			c-12.6,0-23.1,10.2-23.1,22.8s10.6,22.8,23.1,22.8c6.8,0,11.9-2.2,15.9-6.4c4.1-4.1,5.4-9.9,5.4-14.6c0-1.5-0.1-2.8-0.3-3.9
			L130.4,54.9L130.4,54.9z M286.9,59.8c-1.2-3.3-5-9.4-12.6-9.4s-13.9,6-13.9,14.7c0,8.2,6.2,14.7,14.6,14.7
			c6.7,0,10.6-4.1,12.2-6.5l-5-3.3c-1.7,2.4-4,4.1-7.2,4.1s-5.6-1.5-7.1-4.4l19.6-8.1L286.9,59.8L286.9,59.8z M266.8,64.7
			c-0.2-5.7,4.4-8.6,7.7-8.6c2.6,0,4.7,1.3,5.5,3.1L266.8,64.7z M250.9,78.9h6.5V35.7h-6.4L250.9,78.9L250.9,78.9z M240.3,53.7h-0.2
			c-1.4-1.7-4.2-3.3-7.7-3.3c-7.3,0-14.1,6.5-14.1,14.7s6.7,14.6,14.1,14.6c3.5,0,6.3-1.6,7.7-3.3h0.2v2.1c0,5.6-3,8.6-7.8,8.6
			c-3.9,0-6.4-2.8-7.4-5.2l-5.6,2.3c1.6,3.9,5.9,8.7,13,8.7c7.6,0,14-4.4,14-15.3V51.3h-6.1L240.3,53.7L240.3,53.7z M232.9,74
			c-4.4,0-8.2-3.7-8.2-8.8s3.7-9,8.2-9s7.8,3.8,7.8,9S237.3,74,232.9,74z M317.1,35.7h-15.4v43.2h6.4V62.6h9
			c7.1,0,14.2-5.2,14.2-13.4S324.2,35.7,317.1,35.7z M317.2,56.5h-9.2V41.7h9.2c4.8,0,7.5,4,7.5,7.4S322,56.5,317.2,56.5z
			 M357.1,50.3c-4.7,0-9.5,2-11.5,6.6l5.7,2.4c1.2-2.4,3.5-3.2,5.9-3.2c3.3,0,6.7,2,6.8,5.5v0.4c-1.2-0.7-3.7-1.7-6.7-1.7
			c-6.2,0-12.4,3.4-12.4,9.7c0,5.8,5,9.5,10.7,9.5c4.3,0,6.7-1.9,8.2-4.2h0.2v3.3h6.2V62.3C370.2,54.6,364.5,50.3,357.1,50.3
			L357.1,50.3z M356.3,74c-2.1,0-5-1.1-5-3.7c0-3.3,3.7-4.6,6.8-4.6c2.8,0,4.2,0.6,5.9,1.4C363.5,71.2,360,74,356.3,74L356.3,74z
			 M392.8,51.3L385.4,70h-0.2l-7.7-18.7h-6.9l11.5,26.2L375.6,92h6.7L400,51.3H392.8L392.8,51.3z M334.8,78.9h6.4V35.7h-6.4V78.9z"
			/>
		<g>
			<path class="st0" d="M1.6,1.4C0.6,2.4,0,4.1,0,6.2v76.3c0,2.1,0.6,3.8,1.6,4.8l0.2,0.2l42.7-42.7v-1L1.9,1.1L1.6,1.4z"/>
			<path class="st0" d="M58.8,59.1L44.6,44.9v-1l14.2-14.2l0.3,0.2L76,39.4c4.8,2.7,4.8,7.2,0,10l-16.9,9.6L58.8,59.1L58.8,59.1z"/>
			<path class="st0" d="M59.2,58.9L44.6,44.4l-43,43c1.6,1.7,4.2,1.9,7.2,0.2L59.2,58.9"/>
			<path class="st0" d="M59.2,29.8L8.8,1.2c-3-1.7-5.6-1.5-7.2,0.2l43,43L59.2,29.8z"/>
		</g>
	</g>
</g>
</svg>
