<?xml version="1.0" encoding="utf-8"?>
<!-- Generator: Adobe Illustrator 27.3.1, SVG Export Plug-In . SVG Version: 6.00 Build 0)  -->
<svg version="1.1" id="Layer_2_00000085247541567972430640000010693623550169772980_"
	 xmlns="http://www.w3.org/2000/svg" xmlns:xlink="http://www.w3.org/1999/xlink" x="0px" y="0px" viewBox="0 0 2469 459"
	 style="enable-background:new 0 0 2469 459;" xml:space="preserve">
<style type="text/css">
	.st0{fill:#F2811D;}
</style>
<g id="Layer_1-2">
	<g>
		<path class="st0" d="M1599,0h54.7v195.5l76.2-89.5h66.3l-87.8,101.1l94.4,134.2h-64.6L1655.4,222h-1.7v119.3H1599V0z"/>
		<path class="st0" d="M1902.3,308.2c39.8,0,44.7-39.8,44.7-84.5s-6.6-84.5-44.7-84.5s-44.7,39.8-44.7,84.5
			C1855.9,266.8,1862.5,308.2,1902.3,308.2 M1797.9,223.7c0-76.2,36.4-122.6,104.4-122.6S2005,147.5,2005,223.7
			s-36.4,122.6-102.7,122.6S1797.9,299.9,1797.9,223.7 M2134.3,308.2c34.8,0,41.4-46.4,41.4-84.5c0-43.1-5-87.8-41.4-87.8
			c-33.1,0-43.1,48.1-43.1,87.8C2089.5,281.7,2099.5,308.2,2134.3,308.2 M2089.5,134.2c8.3-11.6,26.5-33.1,61.3-33.1
			c56.3,0,81.2,48.1,81.2,122.6c0,66.3-23.2,122.6-99.4,122.6c-61.3,0-97.8-34.8-97.8-104.4V0h54.7L2089.5,134.2L2089.5,134.2z
			 M2364.6,308.2c39.8,0,44.7-39.8,44.7-84.5s-6.6-84.5-44.7-84.5s-44.7,39.8-44.7,84.5C2318.2,266.8,2324.8,308.2,2364.6,308.2
			 M2260.2,223.7c0-76.2,36.4-122.6,104.4-122.6S2469,147.5,2469,223.7s-36.4,122.6-104.4,122.6S2260.2,299.9,2260.2,223.7
			 M1213,387.8H301.6l72.9,71.2L1213,387.8L1213,387.8z M386.1,94.4V106c-16.6-11.6-31.5-16.6-53-16.6c-64.6,0-112.7,58-112.7,129.2
			S268.4,348,333.1,348c21.5,0,36.5-6.6,53-16.6v9.9h56.3V94.4H386.1z M333.1,286.7c-31.5,0-54.7-31.5-54.7-69.6
			s23.2-69.6,54.7-69.6s53,31.5,53,69.6S364.5,286.7,333.1,286.7 M835.1,94.4v145.8c0,26.5-18.2,49.7-46.4,49.7
			c-26.5,0-46.4-23.2-46.4-49.7V94.4H686v145.8c0,59.7,41.4,107.7,101.1,107.7c28.2,0,48-14.9,48-14.9v8.3h56.3V94.4L835.1,94.4
			L835.1,94.4z M1358.8,341.3V195.5c0-26.5,18.2-49.7,46.4-49.7c26.5,0,46.4,23.2,46.4,49.7v145.8h56.3V195.5
			c0-59.6-41.4-107.7-101.1-107.7c-28.2,0-48.1,14.9-48.1,14.9v-8.3h-56.3v246.9L1358.8,341.3L1358.8,341.3z"/>
		<path class="st0" d="M59.7,341.4v-96.1h41.4l71.2,96.1h72.9l-86.2-116c26.5-19.9,44.7-51.4,44.7-86.2c0-58-48.1-106.1-106.1-106.1
			H0v308.2H59.7z M59.7,91.1h38.1c26.5,0,48,21.5,48,48.1s-21.5,48.1-48.1,48.1H59.6L59.7,91.1L59.7,91.1z M1042.3,281.7
			c-5,3.3-11.6,6.6-18.2,6.6c-9.9,0-26.5-6.6-26.5-29.8V152.5h48.1v-58h-48v-63h-56.3v61.3h-29.8v58h29.8v107.7
			c0,54.7,41.4,87.8,82.8,87.8c14.9,0,36.4-5,54.7-14.9L1042.3,281.7L1042.3,281.7z M581.6,208.8l96.1-114.3h-77.9L531.9,179V11.6
			h-58v329.8h58V238.6l82.8,102.7h77.9L581.6,208.8L581.6,208.8z"/>
		<path class="st0" d="M1173.2,87.8c-64.6,0-111,56.3-111,129.2s58,129.2,117.7,129.2c29.8,0,67.9-9.9,99.4-54.7l-49.7-28.2
			c-38.1,56.3-102.7,28.2-109.4-28.2h162.4C1294.2,145.8,1236.2,87.8,1173.2,87.8 M1221.2,185.6h-101.1
			C1131.8,127.6,1211.3,124.3,1221.2,185.6"/>
	</g>
</g>
</svg>
