<?xml version="1.0" encoding="utf-8"?>
<!-- Generator: Adobe Illustrator 27.3.1, SVG Export Plug-In . SVG Version: 6.00 Build 0)  -->
<svg version="1.1" id="Layer_2_00000106137675852905485420000014424412708895783581_"
	 xmlns="http://www.w3.org/2000/svg" xmlns:xlink="http://www.w3.org/1999/xlink" x="0px" y="0px" viewBox="0 0 224.6 49.9"
	 style="enable-background:new 0 0 224.6 49.9;" xml:space="preserve">
<style type="text/css">
	.st0{fill:#F2811D;}
</style>
<g id="Layer_1-2">
	<path class="st0" d="M4.5,24.6c1.6,2,4.1,3.1,6.7,3c2,0.1,4-0.7,5.4-2.1c1.3-1.3,2-3.1,2-5c0.1-1.8-0.6-3.5-1.9-4.7
		c-1.1-1.1-2.6-1.7-4.1-1.7c-0.6,0-1.2,0.1-1.8,0.2c-0.5,0.1-0.9,0.2-1.4,0.3c-1.1,0-1.6-0.6-1.6-1.9c0-2.1,1.1-4,3.2-5.6
		c0.6-0.4,1.3-0.8,1.9-1.2C15,5,17.3,4.6,19.5,4.6c4.6-0.1,9.1,1.2,13,3.8l-2.8,4.1l3.9,2.6L39,7.5l-1.7-1.3C32.2,2.1,26-0.1,19.5,0
		C9.1,0,1.9,6.4,1.9,15.5v0.6C1.9,19.8,2.8,22.6,4.5,24.6z"/>
	<path class="st0" d="M31.4,22.2c-2-0.1-4,0.7-5.4,2.1c-1.3,1.3-2,3.1-2,5c-0.1,1.8,0.6,3.5,1.9,4.7c1.1,1.1,2.6,1.7,4.2,1.8
		c0.6,0,1.2-0.1,1.8-0.2c0.5-0.1,1-0.2,1.4-0.3c1.1,0,1.6,0.6,1.6,1.9c0,0.5,0,0.9-0.2,1.3c-1.8,4.3-6.3,6.8-12.8,6.8
		c-5.5,0-10.8-1.7-15.2-5l3.6-4.2l-3.8-2.9L0,40.8l1.6,1.5c5.6,4.9,12.7,7.7,20.1,7.6c0.8,0,1.6,0,2.4-0.1c4.3-0.2,8.4-1.8,11.7-4.5
		c3.1-2.8,4.7-6.7,4.7-11.6c0-3.6-0.8-6.4-2.5-8.4C36.4,23.2,33.9,22.1,31.4,22.2z"/>
	<rect x="155.2" y="11.7" class="st0" width="2.9" height="26.1"/>
	<path class="st0" d="M184.6,24.3c2.5-0.9,4.2-3.4,4.1-6.1c0-4-3.4-6.5-8.5-6.5h-11.1v26.1h11.6c5.7,0,9.5-2.7,9.5-7.2
		C190.2,27,187.7,25.3,184.6,24.3L184.6,24.3z M172,14.4h8c3.7,0,5.8,1.7,5.8,4.3c0,3.1-2.5,4.7-6,4.7H172V14.4L172,14.4L172,14.4z
		 M180.8,35.2H172V26h8.2c4.6,0,6.9,1.6,6.9,4.5S184.7,35.2,180.8,35.2L180.8,35.2L180.8,35.2z"/>
	<path class="st0" d="M103.6,35.5c-5.7,0-10.1-4.7-10.1-10.8S97.8,14,103.6,14c3.1,0,6.1,1.3,8.2,3.6l2-2.2
		c-2.7-2.8-6.4-4.2-10.2-4.1c-7.7,0-13.2,6.1-13.2,13.5s5.6,13.5,13.1,13.5c4,0.1,7.8-1.6,10.5-4.6l-2-1.9
		C109.5,34.2,107.2,35.6,103.6,35.5z"/>
	<path class="st0" d="M74.1,23.4c-5.8-1.2-7.1-2.6-7.1-5.1s2.2-4.2,5.6-4.2c2.8,0,5.4,1,7.5,2.8l1.7-2.3c-2.6-2.2-5.8-3.3-9.2-3.2
		c-5,0-8.6,3-8.6,7.2s2.8,6.3,8.8,7.6c5.5,1.2,6.8,2.5,6.8,5c0,2.7-2.3,4.5-5.8,4.5c-3.4,0-6.6-1.3-9-3.7L63,34
		c2.9,2.7,6.7,4.2,10.7,4.2c5.2,0,8.9-2.9,8.9-7.4C82.6,26.7,79.9,24.6,74.1,23.4z"/>
	<path class="st0" d="M143.3,19.5c0-4.7-3.7-7.8-9.4-7.8h-11.2v26.1h2.9V27.7h7.5l7.6,10.1h3.6l-8-10.7
		C140.3,26.4,143.3,23.9,143.3,19.5z M125.6,25V14.4h8.1c4.2,0,6.7,1.9,6.7,5.2s-2.8,5.4-6.7,5.4H125.6z"/>
	<path class="st0" d="M210.8,11.7h-9.1v26.1h9.1c8.2,0,13.9-5.7,13.9-13.1S219,11.7,210.8,11.7z M210.8,35.1h-6.1V14.4h6.1
		c6.6,0,10.8,4.6,10.8,10.4S217.4,35.1,210.8,35.1z"/>
</g>
</svg>
