<?xml version="1.0" encoding="utf-8"?>
<!-- Generator: Adobe Illustrator 27.3.1, SVG Export Plug-In . SVG Version: 6.00 Build 0)  -->
<svg version="1.1" id="Layer_2_00000037675194798842966660000003450582277093888927_"
	 xmlns="http://www.w3.org/2000/svg" xmlns:xlink="http://www.w3.org/1999/xlink" x="0px" y="0px" viewBox="0 0 241.6 60.5"
	 style="enable-background:new 0 0 241.6 60.5;" xml:space="preserve">
<style type="text/css">
	.st0{fill:#F2811D;}
	.st1{fill:none;}
</style>
<g id="Layer_1-2">
	<g>
		<path class="st0" d="M31.9,37.6c4.6,0,8.4-3.8,8.4-8.4s-3.8-8.4-8.4-8.4s-8.4,3.8-8.4,8.4S27.3,37.6,31.9,37.6L31.9,37.6z
			 M31.9,45.5c8.9,0,16.2-7.3,16.2-16.2s-7.3-16.2-16.2-16.2s-16.2,7.3-16.2,16.2S23,45.5,31.9,45.5C31.9,45.5,31.9,45.5,31.9,45.5z
			 M7.5,29.3c0-13.5,10.9-24.4,24.4-24.4s24.4,10.9,24.4,24.4S45.4,53.7,31.9,53.7S7.5,42.8,7.5,29.3L7.5,29.3z"/>
		<polygon class="st0" points="64.3,11.8 92.1,11.8 92.1,18.8 82.5,18.8 82.5,46.9 74,46.9 74,18.9 64.3,18.9 64.3,11.8 		"/>
		<path class="st0" d="M134,18.9h-7.8v7c0,0,6.1,0,7,0c2.4,0,4.3-1.1,4.3-3.5C137.5,19.7,135.9,18.9,134,18.9L134,18.9L134,18.9z
			 M118.1,11.8h16.5c9.4,0,10.7,6.4,10.7,10.2c0,5.4-4.7,8.2-5.1,8.3c0,0,4.1,1.5,4.1,6.2V43c0,2.6,1.6,3.3,1.9,4h-6.7
			c-3.2-0.4-3.1-2.9-3.1-4.4v-5.6c-0.1-1.4-0.5-2.9-3.4-3h-6.8v13H118L118.1,11.8L118.1,11.8L118.1,11.8z"/>
		<polygon class="st0" points="181.1,11.8 181.1,46.9 206.4,46.9 206.4,39.7 189.4,39.7 189.4,31.8 203.9,31.8 203.9,25.2 
			189.4,25.2 189.4,18.9 206.4,18.9 206.4,11.8 181.1,11.8 		"/>
		<polygon class="st0" points="207.6,18.9 217.6,18.9 217.6,46.9 226,46.9 226,18.9 236.2,18.9 236.2,11.8 207.6,11.8 207.6,18.9 		
			"/>
		<path class="st0" d="M100.9,24.2l-3,9.1h6.2L100.9,24.2L100.9,24.2z M96.2,11.8h9l12.3,35.1h-8.7l-2.5-7.3H95.8l-2.4,7.3h-8.7
			L96.2,11.8L96.2,11.8L96.2,11.8z"/>
		<path class="st0" d="M178.2,27.3h-15.1v6.8h7.2c0,1.4,0.2,2.8-1.5,4.8c-0.6,0.7-2.5,2.2-5.3,2.2c-2.3,0-4-0.7-5.4-1.9
			c-3.2-2.7-3.9-7.8-3.9-10.4c0-3.3,1.3-11.6,9.5-11.9c0,0,5.5-0.4,6.9,6.3h7.6c-0.1-3.4-4.1-12.8-14.5-12.8c-3.6,0-8.2,1.1-12,4.9
			c-2.8,2.8-5.2,7.4-5.2,13.9c0,7.1,2.6,11.7,5,14.2c4.2,4.4,8.4,4.8,10.6,4.8c1.7,0,5.1-0.3,9.4-3.2l1.1,2h5.7L178.2,27.3
			L178.2,27.3L178.2,27.3z"/>
		<path class="st0" d="M229.8,44.6h0.4c0.3,0,0.5,0,0.5-0.3c0-0.3-0.3-0.3-0.5-0.3h-0.4L229.8,44.6L229.8,44.6L229.8,44.6z
			 M229.3,43.6h0.9c0.6,0,1,0.2,1,0.7c0,0.5-0.3,0.6-0.6,0.7l0.7,1.1h-0.5l-0.6-1.1h-0.3V46h-0.5L229.3,43.6L229.3,43.6L229.3,43.6z
			 M230.2,46.6c0.9,0,1.7-0.7,1.7-1.8s-0.8-1.7-1.7-1.7s-1.7,0.7-1.7,1.7S229.3,46.6,230.2,46.6L230.2,46.6z M230.2,42.6
			c1.2,0,2.3,0.9,2.3,2.2s-1.1,2.2-2.3,2.2s-2.3-0.9-2.3-2.2S229,42.6,230.2,42.6L230.2,42.6z"/>
		<polygon class="st1" points="0,0 241.6,0 241.6,60.5 0,60.5 0,0 0,0 		"/>
	</g>
</g>
</svg>
